<?xml version="1.0" standalone="no"?>
<!DOCTYPE svg PUBLIC "-//W3C//DTD SVG 20010904//EN"
 "http://www.w3.org/TR/2001/REC-SVG-20010904/DTD/svg10.dtd">
<svg version="1.0" xmlns="http://www.w3.org/2000/svg"
 width="1080.000000pt" height="1080.000000pt" viewBox="0 0 1080.000000 1080.000000"
 preserveAspectRatio="xMidYMid meet">
<metadata>
Created by potrace 1.16, written by Peter Selinger 2001-2019
</metadata>
<g transform="translate(0.000000,1080.000000) scale(0.100000,-0.100000)"
fill="#000000" stroke="none">
<path d="M5105 10790 c-621 -33 -1311 -199 -1891 -455 -1209 -535 -2195 -1517
-2737 -2726 -512 -1142 -611 -2417 -281 -3634 183 -674 509 -1328 938 -1880
975 -1254 2436 -2011 4028 -2086 551 -26 1152 44 1698 196 1252 351 2335 1145
3056 2241 746 1135 1035 2540 798 3884 -194 1105 -708 2092 -1505 2889 -357
357 -724 635 -1174 890 -506 285 -1019 471 -1650 596 -364 72 -878 106 -1280
85z m550 -1585 c869 -49 1734 -430 2369 -1045 592 -573 965 -1257 1115 -2043
48 -250 64 -429 65 -707 0 -286 -14 -452 -60 -700 -169 -916 -669 -1739 -1404
-2312 -504 -392 -1062 -638 -1710 -752 -317 -56 -773 -68 -1085 -27 -462 60
-870 183 -1265 380 -424 213 -826 526 -1159 906 -501 571 -807 1253 -908 2030
-23 175 -26 726 -5 900 87 726 368 1399 810 1943 42 52 88 108 101 124 106
131 385 392 571 534 183 141 450 307 615 384 39 18 106 49 150 70 250 117 613
223 935 274 313 50 524 60 865 41z"/>
<path d="M5095 8970 c-908 -74 -1757 -501 -2374 -1195 -403 -453 -684 -998
-815 -1585 -63 -283 -81 -454 -80 -790 0 -353 25 -564 104 -880 125 -496 340
-929 668 -1345 113 -143 396 -428 542 -546 512 -415 1121 -680 1760 -768 416
-57 950 -33 1325 60 618 154 1138 433 1605 861 197 181 365 378 532 623 405
597 608 1263 608 1995 0 587 -125 1114 -385 1625 -294 576 -740 1064 -1289
1409 -447 280 -956 460 -1481 521 -164 20 -561 28 -720 15z m1481 -595 c89
-56 118 -109 112 -209 -4 -85 -37 -143 -104 -182 -86 -50 -188 -42 -263 23
-124 105 -104 291 39 366 49 26 63 28 121 24 39 -2 77 -11 95 -22z m-305 -770
c42 -22 69 -71 69 -124 0 -33 -40 -152 -156 -460 -86 -229 -170 -450 -186
-491 -51 -130 -248 -671 -283 -775 -18 -55 -79 -228 -135 -385 -102 -286 -237
-667 -311 -879 -22 -62 -39 -115 -37 -116 2 -2 41 12 88 32 310 128 512 262
740 492 172 173 290 327 430 560 66 111 200 373 245 481 38 91 68 127 115 140
78 21 160 -25 180 -101 8 -29 7 -49 -6 -86 -28 -85 -240 -504 -320 -633 -260
-420 -591 -750 -957 -957 -177 -99 -492 -234 -604 -258 -18 -3 -33 -11 -33
-17 0 -5 -30 -85 -66 -176 -291 -738 -654 -1143 -1056 -1180 -107 -10 -243 2
-318 27 -180 62 -313 200 -374 388 -22 68 -35 236 -24 315 38 283 252 498 634
637 150 55 300 92 607 151 270 51 364 73 378 87 4 4 101 276 214 603 379 1090
390 1121 648 1800 91 239 200 530 242 645 94 254 122 293 213 294 18 1 46 -6
63 -14z"/>
<path d="M4700 3938 c-41 -10 -161 -33 -267 -53 -500 -92 -740 -209 -840 -413
-36 -73 -38 -80 -38 -177 0 -93 2 -105 32 -166 60 -122 165 -181 321 -180 285
1 524 209 726 633 66 137 150 352 144 366 -1 4 -37 0 -78 -10z"/>
</g>
</svg>
